<svg id="Layer_1" data-name="Layer 1" xmlns="http://www.w3.org/2000/svg" viewBox="0 0 200 200"><defs><style>.cls-1{fill:#231f20;}</style></defs><title>Wondicon - UI (Free)</title><path class="cls-1" d="M89.65,155A65.34,65.34,0,1,1,155,89.65,65.41,65.41,0,0,1,89.65,155Zm0-120.67A55.34,55.34,0,1,0,145,89.65,55.4,55.4,0,0,0,89.65,34.31Z"/><path class="cls-1" d="M89.65,135A45.4,45.4,0,1,1,135,89.65,45.45,45.45,0,0,1,89.65,135Zm0-80.79A35.4,35.4,0,1,0,125,89.65,35.44,35.44,0,0,0,89.65,54.25Z"/><path class="cls-1" d="M170.69,175.69a5,5,0,0,1-3.54-1.47l-38.37-38.37a5,5,0,0,1,7.07-7.07l38.37,38.37a5,5,0,0,1-3.53,8.54Z"/></svg>